<?xml version="1.0" encoding="UTF-8"?>
<svg xmlns="http://www.w3.org/2000/svg" width="330" height="72" viewBox="0 0 330 72" fill="none">
  <path d="M88.5169 18.6214H85.477V22.4244H82.2822V9.01184H88.5169C91.3626 9.01184 93.5379 10.9474 93.5379 13.8213C93.5379 16.6953 91.3626 18.6214 88.5169 18.6214ZM85.477 11.747V15.8839H88.2927C89.5063 15.8839 90.2646 14.9643 90.2646 13.8096C90.2646 12.5655 89.467 11.7447 88.2927 11.7447H85.477V11.747Z" fill="#003571"></path>
  <path d="M104.01 17.683C104.01 20.5075 101.883 22.6218 98.9981 22.6218C96.1131 22.6218 93.9863 20.5075 93.9863 17.683C93.9863 14.8584 96.1131 12.7441 98.9981 12.7441C101.883 12.7441 104.01 14.8584 104.01 17.683ZM97.017 17.683C97.017 18.9671 97.833 19.8655 98.9981 19.8655C100.163 19.8655 100.979 18.9671 100.979 17.683C100.979 16.3989 100.163 15.5005 98.9981 15.5005C97.833 15.5005 97.017 16.3989 97.017 17.683Z" fill="#003571"></path>
  <path d="M108.379 22.4243H105.321V8.52026H108.379V22.4243Z" fill="#003571"></path>
  <path d="M110.018 10.0302C110.018 9.0236 110.698 8.32275 111.689 8.32275C112.681 8.32275 113.379 9.01419 113.379 10.0302C113.379 11.0462 112.681 11.7282 111.689 11.7282C110.698 11.7282 110.018 11.0368 110.018 10.0302ZM113.231 22.4244H110.173V12.9441H113.231V22.4244Z" fill="#003571"></path>
  <path d="M118.768 15.4817V18.5438C118.768 20.1525 120.176 20.0161 121.653 19.6609L121.866 22.1892C121.186 22.4455 120.167 22.6242 119.39 22.6242C117.254 22.6242 115.71 21.5777 115.71 19.0494V15.4841H114.223V12.9464H115.71V9.90552H118.671V12.9464H121.302V15.4841H118.768V15.4817Z" fill="#003571"></path>
  <path d="M131.342 21.7728C130.613 22.1985 129.282 22.6218 127.856 22.6218C124.397 22.6218 122.331 20.6675 122.331 17.683C122.331 14.6985 124.36 12.7441 127.109 12.7441C129.857 12.7441 132.206 14.5503 131.527 18.4826H125.313C125.468 19.5786 126.623 19.9925 127.876 19.9925C129.129 19.9925 130.334 19.7267 130.926 19.4398L131.344 21.7705L131.342 21.7728ZM128.796 16.6576C128.796 15.9168 128.184 15.2159 127.155 15.2159C126.029 15.2159 125.398 15.8768 125.32 16.6576H128.796Z" fill="#003571"></path>
  <path d="M137.618 12.7465C138.686 12.7465 139.541 12.8946 140.685 13.3791L140.461 16.0249C139.782 15.738 138.947 15.5616 138.159 15.5616C136.76 15.5616 135.516 16.0861 135.516 17.6853C135.516 19.0588 136.614 19.769 137.992 19.769C139.002 19.769 139.624 19.5409 140.498 19.1176L140.799 21.8434C139.721 22.3678 138.875 22.6242 137.652 22.6242C134.67 22.6242 132.458 20.6086 132.458 17.7065C132.458 14.4468 134.73 12.7488 137.615 12.7488L137.618 12.7465Z" fill="#003571"></path>
  <path d="M145.237 13.7625C145.908 13.0405 146.957 12.7442 147.977 12.7442C149.734 12.7442 151.423 13.9977 151.423 16.2602V22.422H148.365V17.1492C148.365 16.0932 147.54 15.5899 146.802 15.5899C146.065 15.5899 145.249 16.0932 145.249 17.1492V22.422H142.181V8.51794H145.24V13.7625H145.237Z" fill="#003571"></path>
  <path d="M159.341 22.4243V17.1514C159.341 16.0955 158.516 15.5922 157.778 15.5922C157.041 15.5922 156.225 16.0955 156.225 17.1514V22.4243H153.167V12.944H155.973L156.07 13.9412C156.731 13.0922 157.857 12.7465 158.955 12.7465C160.712 12.7465 162.402 14 162.402 16.2624V22.4243H159.343H159.341Z" fill="#003571"></path>
  <path d="M163.951 10.0302C163.951 9.0236 164.63 8.32275 165.622 8.32275C166.614 8.32275 167.312 9.01419 167.312 10.0302C167.312 11.0462 166.614 11.7282 165.622 11.7282C164.63 11.7282 163.951 11.0368 163.951 10.0302ZM167.164 22.4244H164.106V12.9441H167.164V22.4244Z" fill="#003571"></path>
  <path d="M172.02 16.1426H173.216L175.042 12.9417H178.452L175.627 17.5348L179.152 22.4243H175.49L173.121 18.8589H172.023V22.4243H168.964V8.52026H172.023V16.1449L172.02 16.1426Z" fill="#003571"></path>
  <path d="M186.067 22.4243L185.97 21.4271C185.436 22.0997 184.532 22.6218 183.221 22.6218C180.736 22.6218 178.91 20.5287 178.91 17.6947C178.91 14.8608 180.736 12.7465 183.221 12.7465C184.532 12.7465 185.436 13.2803 185.97 13.9412L186.067 12.944H189.028V22.4243H186.067ZM181.94 17.6947C181.94 18.9788 182.766 19.8772 183.952 19.8772C185.137 19.8772 185.963 18.9788 185.963 17.6947C185.963 16.4106 185.137 15.5216 183.952 15.5122C182.768 15.5122 181.94 16.4106 181.94 17.6947Z" fill="#003571"></path>
  <path d="M201.202 14.5221L204.241 9.03057H207.785L203.775 15.9426L208.668 22.4219H204.736L201.007 17.2573H199.19V22.4219H195.996V9.0094H199.19V14.5197H201.202V14.5221Z" fill="#003571"></path>
  <path d="M214.82 12.7465C215.19 12.7465 215.566 12.8147 215.957 12.944L215.772 15.6604C215.384 15.5216 214.986 15.4534 214.598 15.4534C213.442 15.4534 212.462 16.0955 212.462 17.8641V22.4266H209.403V12.9464H212.288L212.385 14.2399C212.822 13.3015 213.745 12.7488 214.822 12.7488L214.82 12.7465Z" fill="#003571"></path>
  <path d="M223.51 22.4243L223.413 21.4271C222.879 22.0997 221.975 22.6218 220.664 22.6218C218.179 22.6218 216.353 20.5287 216.353 17.6947C216.353 14.8608 218.179 12.7465 220.664 12.7465C221.975 12.7465 222.879 13.2803 223.413 13.9412L223.51 12.944H226.471V22.4243H223.51ZM219.383 17.6947C219.383 18.9788 220.208 19.8772 221.394 19.8772C222.58 19.8772 223.406 18.9788 223.406 17.6947C223.406 16.4106 222.58 15.5216 221.394 15.5122C220.211 15.5122 219.383 16.4106 219.383 17.6947Z" fill="#003571"></path>
  <path d="M231.318 16.1426H232.513L234.34 12.9417H237.749L234.925 17.5348L238.45 22.4243H234.788L232.419 18.8589H231.321V22.4243H228.262V8.52026H231.321V16.1449L231.318 16.1426Z" fill="#003571"></path>
  <path d="M248.143 17.683C248.143 20.5075 246.016 22.6218 243.131 22.6218C240.246 22.6218 238.119 20.5075 238.119 17.683C238.119 14.8584 240.246 12.7441 243.131 12.7441C246.016 12.7441 248.143 14.8584 248.143 17.683ZM241.15 17.683C241.15 18.9671 241.966 19.8655 243.131 19.8655C244.296 19.8655 245.112 18.9671 245.112 17.683C245.112 16.3989 244.296 15.5005 243.131 15.5005C241.966 15.5005 241.15 16.3989 241.15 17.683Z" fill="#003571"></path>
  <path d="M257.276 13.1298L259.082 19.1834L260.714 12.9417H263.83L261.081 22.4219H257.508L256.07 17.6712L254.643 22.4219H251.069L248.321 12.9417H251.437L253.06 19.1834L254.877 13.1298H257.276Z" fill="#003571"></path>
  <path d="M268 22.6218C266.623 22.6218 265.252 22.3749 264.36 21.9704L264.66 19.5103C265.552 19.8655 266.884 20.143 267.739 20.143C268.759 20.143 269.147 19.9948 269.147 19.5903C269.147 19.2352 268.865 19.087 267.894 18.9294L267.03 18.7907C265.088 18.4849 264.214 17.5865 264.214 15.9073C264.214 13.9812 265.885 12.7465 268.497 12.7465C269.693 12.7465 270.788 12.9534 271.683 13.3579L271.45 15.778C270.858 15.531 269.468 15.2747 268.662 15.2747C267.621 15.2747 267.127 15.4722 267.127 15.8862C267.127 16.2225 267.506 16.3989 268.564 16.5682L269.468 16.7164C271.265 17.0127 272.099 17.9017 272.099 19.5221C272.099 21.4177 270.516 22.6242 268 22.6242V22.6218Z" fill="#003571"></path>
  <path d="M276.519 16.1426H277.714L279.54 12.9417H282.95L280.125 17.5348L283.651 22.4243H279.989L277.619 18.8589H276.521V22.4243H273.463V8.52026H276.521V16.1449L276.519 16.1426Z" fill="#003571"></path>
  <path d="M290.568 22.4243L290.471 21.4271C289.937 22.0997 289.033 22.6218 287.722 22.6218C285.237 22.6218 283.411 20.5287 283.411 17.6947C283.411 14.8608 285.237 12.7465 287.722 12.7465C289.033 12.7465 289.937 13.2803 290.471 13.9412L290.568 12.944H293.529V22.4243H290.568ZM286.441 17.6947C286.441 18.9788 287.267 19.8772 288.452 19.8772C289.638 19.8772 290.464 18.9788 290.464 17.6947C290.464 16.4106 289.638 15.5216 288.452 15.5122C287.269 15.5122 286.441 16.4106 286.441 17.6947Z" fill="#003571"></path>
  <path d="M81.5239 31.4624H83.5629L86.8432 43.0076L90.038 31.6788H92.2225L95.4173 43.0076L98.6884 31.4624H100.737L97.0679 44.8749H93.776L91.1268 34.9408L88.4776 44.8749H85.1972L81.5286 31.4624H81.5239Z" fill="#724896"></path>
  <path d="M108.945 35.3947H111.061L106.594 46.0814C105.848 47.8382 105.041 49.0235 102.771 49.0235C101.946 49.0235 101.393 48.7672 101.227 48.6778L101.43 47.0574C101.691 47.175 102.197 47.3043 102.683 47.3043C103.936 47.3043 104.44 46.6623 104.858 45.5569L105.062 45.0137L101.044 35.3947H103.159L106.063 42.8617L108.945 35.3947Z" fill="#724896"></path>
  <path d="M111.398 40.0842C111.398 37.1703 113.428 35.1947 116.077 35.1947C117.659 35.1947 118.708 35.7874 119.397 36.6858V30.9685H121.318V44.8725H119.397V43.579C118.708 44.4774 117.659 45.0701 116.077 45.0701C113.428 45.0701 111.398 42.9958 111.398 40.0819V40.0842ZM116.311 36.9539C114.515 36.9539 113.322 38.3368 113.322 40.0842C113.322 41.8316 114.517 43.3133 116.311 43.3133C118.105 43.3133 119.388 41.8316 119.388 40.0842C119.388 38.3368 118.098 36.9539 116.311 36.9539Z" fill="#724896"></path>
  <path d="M123.137 43.2451L127.943 37.0527H123.234V35.3947H130.125V37.0245L125.319 43.2169H130.426V44.8749H123.135V43.2451H123.137Z" fill="#724896"></path>
  <path d="M131.804 32.2127C131.804 31.5024 132.289 31.0085 132.987 31.0085C133.685 31.0085 134.182 31.5024 134.182 32.2127C134.182 32.9229 133.688 33.4168 132.987 33.4168C132.287 33.4168 131.804 32.9229 131.804 32.2127ZM132.028 44.8726V35.3924H133.949V44.8726H132.028Z" fill="#724896"></path>
  <path d="M135.856 40.0842C135.856 37.1702 137.886 35.1947 140.535 35.1947C142.117 35.1947 143.166 35.7874 143.855 36.6858V35.3923H145.776V44.8725H143.855V43.579C143.166 44.4774 142.117 45.0701 140.535 45.0701C137.886 45.0701 135.856 42.9957 135.856 40.0818V40.0842ZM140.769 36.9539C138.973 36.9539 137.78 38.3368 137.78 40.0842C137.78 41.8316 138.975 43.3132 140.769 43.3132C142.563 43.3132 143.846 41.8316 143.846 40.0842C143.846 38.3368 142.556 36.9539 140.769 36.9539Z" fill="#724896"></path>
  <path d="M150.882 37.9111L152.852 37.0715V38.8283L150.882 39.6679V44.8725H148.961V40.477L146.992 41.3072V39.5503L148.961 38.7202V30.9685H150.882V37.9111Z" fill="#724896"></path>
  <path d="M160.873 44.8749H158.834V31.4624H160.873V44.8749Z" fill="#724896"></path>
  <path d="M172.386 39.1177V44.8749H170.465V39.5316C170.465 37.9605 169.621 37.0527 168.174 37.0527C166.727 37.0527 165.601 37.9605 165.601 39.5316V44.8749H163.68V35.3947H165.613V36.5894C165.923 36.105 166.808 35.1971 168.477 35.1971C171.041 35.1971 172.388 36.8176 172.388 39.1177H172.386Z" fill="#724896"></path>
  <path d="M174.194 43.2451L179 37.0528H174.291V35.3947H181.182V37.0245L176.376 43.2169H181.483V44.875H174.191V43.2451H174.194ZM176.746 32.2127C176.746 31.5024 177.231 31.0085 177.929 31.0085C178.628 31.0085 179.125 31.5024 179.125 32.2127C179.125 32.9229 178.63 33.4168 177.929 33.4168C177.229 33.4168 176.746 32.9229 176.746 32.2127Z" fill="#724896"></path>
  <path d="M190.274 35.3947H192.389L187.923 46.0814C187.176 47.8382 186.37 49.0235 184.099 49.0235C183.274 49.0235 182.722 48.7672 182.555 48.6778L182.759 47.0574C183.02 47.175 183.526 47.3043 184.012 47.3043C185.265 47.3043 185.768 46.6623 186.187 45.5569L186.39 45.0137L182.373 35.3947H184.488L187.391 42.8617L190.274 35.3947Z" fill="#724896"></path>
  <path d="M202.427 39.1177V44.8749H200.506V39.5316C200.506 37.9605 199.662 37.0527 198.215 37.0527C196.768 37.0527 195.642 37.9605 195.642 39.5316V44.8749H193.721V35.3947H195.653V36.5894C195.963 36.105 196.848 35.1971 198.518 35.1971C201.081 35.1971 202.429 36.8176 202.429 39.1177H202.427Z" fill="#724896"></path>
  <path d="M204.583 32.2127C204.583 31.5024 205.069 31.0085 205.767 31.0085C206.465 31.0085 206.962 31.5024 206.962 32.2127C206.962 32.9229 206.468 33.4168 205.767 33.4168C205.067 33.4168 204.583 32.9229 204.583 32.2127ZM204.808 44.8726V35.3924H206.729V44.8726H204.808Z" fill="#724896"></path>
  <path d="M217.436 44.1434C216.359 44.7667 215.185 45.0724 213.883 45.0724C210.749 45.0724 208.583 43.0569 208.583 40.1336C208.583 37.2102 210.591 35.1947 213.377 35.1947C216.405 35.1947 218.356 37.7629 217.804 40.8438H210.552C210.892 42.3937 212.076 43.2544 213.881 43.2544C214.967 43.2544 215.899 42.9675 217.143 42.3654L217.434 44.1434H217.436ZM216.068 39.2845C215.941 37.9111 214.97 36.9844 213.437 36.9844C211.904 36.9844 210.758 37.9134 210.612 39.2845H216.068Z" fill="#724896"></path>
  <path d="M221.766 36.6882C222.291 35.651 223.174 35.1971 224.193 35.1971C224.922 35.1971 225.474 35.4347 225.474 35.4347L225.271 37.2315C225.164 37.1915 224.746 37.0151 224.136 37.0151C223.107 37.0151 221.766 37.5678 221.766 39.7103V44.8749H219.833V35.3947H221.766V36.6882Z" fill="#724896"></path>
  <path d="M226.568 32.2127C226.568 31.5024 227.053 31.0085 227.751 31.0085C228.45 31.0085 228.947 31.5024 228.947 32.2127C228.947 32.9229 228.452 33.4168 227.751 33.4168C227.051 33.4168 226.568 32.9229 226.568 32.2127ZM226.792 44.8726V35.3924H228.713V44.8726H226.792Z" fill="#724896"></path>
  <path d="M230.992 32.2127C230.992 31.5024 231.478 31.0085 232.176 31.0085C232.874 31.0085 233.371 31.5024 233.371 32.2127C233.371 32.9229 232.876 33.4168 232.176 33.4168C231.475 33.4168 230.992 32.9229 230.992 32.2127ZM231.216 44.8726V35.3924H233.137V44.8726H231.216Z" fill="#724896"></path>
  <path d="M92.6688 67.3255H82.8926V53.913H92.4631V55.7991H84.9292V59.4939H91.4436V61.38H84.9292V65.4393H92.6665V67.3255H92.6688Z" fill="#724896"></path>
  <path d="M96.4811 67.3256H94.5601V53.4215H96.4811V67.3256Z" fill="#724896"></path>
  <path d="M107.281 66.5941C106.204 67.2173 105.029 67.5231 103.728 67.5231C100.593 67.5231 98.4272 65.5076 98.4272 62.5842C98.4272 59.6609 100.436 57.6454 103.222 57.6454C106.25 57.6454 108.201 60.2136 107.649 63.2945H100.397C100.737 64.8443 101.92 65.7051 103.726 65.7051C104.812 65.7051 105.744 65.4182 106.988 64.8161L107.279 66.5941H107.281ZM105.913 61.7352C105.785 60.3618 104.815 59.4351 103.282 59.4351C101.749 59.4351 100.603 60.3641 100.457 61.7352H105.913Z" fill="#724896"></path>
  <path d="M111.602 61.5776H113.319L115.689 57.8453H117.804L114.833 62.4384L118.308 67.3279H116.114L113.259 63.2404H111.599V67.3279H109.678V53.4238H111.599V61.5823L111.602 61.5776Z" fill="#724896"></path>
  <path d="M122.416 59.5033V64.2446C122.416 65.2512 122.989 65.7545 123.94 65.7545C124.386 65.7545 124.998 65.6651 125.454 65.5263L125.706 67.2055C125.239 67.3937 124.416 67.5207 123.667 67.5207C121.716 67.5207 120.493 66.4036 120.493 64.4798V59.5033H118.833V57.8452H120.523V54.8043H122.395V57.8452H125.162V59.5033H122.416Z" fill="#724896"></path>
  <path d="M128.988 59.1388C129.513 58.1016 130.396 57.6477 131.416 57.6477C132.144 57.6477 132.696 57.8852 132.696 57.8852L132.493 59.682C132.386 59.6421 131.968 59.4657 131.358 59.4657C130.329 59.4657 128.988 60.0184 128.988 62.1609V67.3255H127.056V57.8453H128.988V59.1388Z" fill="#724896"></path>
  <path d="M141.393 57.8453H143.508L139.042 68.5321C138.295 70.2889 137.488 71.4742 135.218 71.4742C134.393 71.4742 133.84 71.2179 133.674 71.1285L133.877 69.5081C134.139 69.6257 134.645 69.755 135.13 69.755C136.383 69.755 136.887 69.113 137.306 68.0076L137.509 67.4643L133.491 57.8453H135.606L138.51 65.3124L141.393 57.8453Z" fill="#724896"></path>
  <path d="M149.095 57.6477C150.327 57.6477 151.453 58.0334 151.89 58.2803L151.687 60.0278C151.026 59.722 150.163 59.4657 149.095 59.4657C147.105 59.4657 145.736 60.731 145.736 62.5372C145.736 64.3434 147.105 65.7074 149.114 65.7074C149.988 65.7074 150.986 65.4699 151.726 65.1242L152.017 66.9022C151.125 67.2573 150.163 67.5254 149.114 67.5254C145.968 67.5254 143.813 65.5005 143.813 62.5372C143.813 59.5739 145.958 57.6477 149.093 57.6477H149.095Z" fill="#724896"></path>
  <path d="M153.245 65.6958L158.051 59.5034H153.342V57.8453H160.233V59.4752L155.427 65.6675H160.534V67.3256H153.243V65.6958H153.245Z" fill="#724896"></path>
  <path d="M170.923 61.5682V67.3255H169.002V61.9821C169.002 60.4111 168.158 59.5033 166.711 59.5033C165.264 59.5033 164.138 60.4111 164.138 61.9821V67.3255H162.217V57.8453H164.149V59.04C164.459 58.5555 165.345 57.6477 167.014 57.6477C169.577 57.6477 170.925 59.2681 170.925 61.5682H170.923Z" fill="#724896"></path>
  <path d="M181.575 66.5941C180.498 67.2173 179.323 67.5231 178.022 67.5231C174.887 67.5231 172.721 65.5076 172.721 62.5842C172.721 59.6609 174.73 57.6454 177.516 57.6454C180.544 57.6454 182.495 60.2136 181.943 63.2945H174.691C175.031 64.8443 176.214 65.7051 178.02 65.7051C179.106 65.7051 180.038 65.4182 181.281 64.8161L181.573 66.5941H181.575ZM180.207 61.7352C180.079 60.3618 179.108 59.4351 177.576 59.4351C176.043 59.4351 174.897 60.3641 174.751 61.7352H180.207Z" fill="#724896"></path>
  <path d="M184.025 57.8452H185.946V67.9769C185.946 70.1406 184.897 71.4741 182.694 71.4741C182.16 71.4741 181.498 71.3448 181.149 71.1778L181.353 69.5574C181.605 69.6562 182.09 69.7549 182.557 69.7549C183.577 69.7549 184.023 69.1717 184.023 67.8688V57.8452H184.025ZM183.801 54.6656C183.801 53.9553 184.286 53.4614 184.985 53.4614C185.683 53.4614 186.18 53.9553 186.18 54.6656C186.18 55.3758 185.685 55.8697 184.985 55.8697C184.284 55.8697 183.801 55.3758 183.801 54.6656Z" fill="#724896"></path>
  <path d="M193.397 54.6632C193.397 53.953 193.882 53.4591 194.581 53.4591C195.279 53.4591 195.776 53.953 195.776 54.6632C195.776 55.3735 195.281 55.8674 194.581 55.8674C193.88 55.8674 193.397 55.3735 193.397 54.6632ZM193.621 67.3232V57.8429H195.542V67.3232H193.621Z" fill="#724896"></path>
  <path d="M208.435 59.809L211.763 53.913H214.094L210.076 60.8368L214.91 67.3255H212.346L208.24 61.6858H205.531V67.3255H203.492V53.913H205.531V59.809H208.435Z" fill="#724896"></path>
  <path d="M219.739 57.6477C222.573 57.6477 224.69 59.8114 224.69 62.5866C224.69 65.3617 222.575 67.5254 219.739 67.5254C216.902 67.5254 214.787 65.3617 214.787 62.5866C214.787 59.8114 216.902 57.6477 219.739 57.6477ZM219.739 65.6863C221.496 65.6863 222.767 64.334 222.767 62.5842C222.767 60.8344 221.496 59.4821 219.739 59.4821C217.982 59.4821 216.71 60.8344 216.71 62.5842C216.71 64.334 217.982 65.6863 219.739 65.6863Z" fill="#724896"></path>
  <path d="M234.659 59.414C235.223 58.485 236.386 57.6454 237.988 57.6454C240.473 57.6454 241.811 59.2658 241.811 61.5659V67.3232H239.879V61.9798C239.879 60.4088 239.053 59.501 237.685 59.501C236.316 59.501 235.209 60.3712 235.161 61.8622V67.3232H233.228V61.9798C233.228 60.4088 232.403 59.501 231.034 59.501C229.666 59.501 228.51 60.4088 228.51 61.9798V67.3232H226.577V57.8429H228.51V59.0377C228.81 58.5532 229.693 57.6454 231.335 57.6454C232.976 57.6454 234.062 58.318 234.654 59.414H234.659Z" fill="#724896"></path>
  <path d="M254.151 62.6336C254.151 65.5475 252.121 67.5231 249.472 67.5231C247.891 67.5231 246.841 66.9304 246.152 66.032V71.2766H244.231V57.8453H246.152V59.1388C246.841 58.2404 247.891 57.6477 249.472 57.6477C252.121 57.6477 254.151 59.722 254.151 62.6359V62.6336ZM249.239 65.7639C251.035 65.7639 252.228 64.381 252.228 62.6336C252.228 60.8862 251.033 59.4045 249.239 59.4045C247.445 59.4045 246.162 60.8862 246.162 62.6336C246.162 64.381 247.452 65.7639 249.239 65.7639Z" fill="#724896"></path>
  <path d="M262.54 57.8453H264.452V63.4756C264.443 65.8745 262.714 67.5255 260.21 67.5255C257.707 67.5255 255.959 65.9051 255.959 63.5368V57.8477H257.892V63.2005C257.892 64.661 258.832 65.6887 260.213 65.6887C261.593 65.6887 262.543 64.661 262.543 63.2005V57.8477L262.54 57.8453Z" fill="#724896"></path>
  <path d="M269.376 59.5033V64.2446C269.376 65.2512 269.949 65.7545 270.9 65.7545C271.346 65.7545 271.958 65.6651 272.414 65.5263L272.666 67.2055C272.199 67.3937 271.376 67.5207 270.627 67.5207C268.676 67.5207 267.453 66.4036 267.453 64.4798V59.5033H265.793V57.8452H267.483V54.8043H269.355V57.8452H272.122V59.5033H269.376Z" fill="#724896"></path>
  <path d="M282.033 66.5941C280.955 67.2173 279.781 67.5231 278.479 67.5231C275.345 67.5231 273.179 65.5076 273.179 62.5842C273.179 59.6609 275.188 57.6454 277.973 57.6454C281.002 57.6454 282.953 60.2136 282.4 63.2945H275.148C275.488 64.8443 276.672 65.7051 278.477 65.7051C279.564 65.7051 280.495 65.4182 281.739 64.8161L282.03 66.5941H282.033ZM280.664 61.7352C280.537 60.3618 279.566 59.4351 278.033 59.4351C276.501 59.4351 275.354 60.3641 275.208 61.7352H280.664Z" fill="#724896"></path>
  <path d="M286.362 59.1388C286.887 58.1016 287.77 57.6477 288.79 57.6477C289.518 57.6477 290.07 57.8852 290.07 57.8852L289.867 59.682C289.76 59.6421 289.342 59.4657 288.732 59.4657C287.703 59.4657 286.362 60.0184 286.362 62.1609V67.3255H284.43V57.8453H286.362V59.1388Z" fill="#724896"></path>
  <path d="M295.565 57.6477C298.4 57.6477 300.517 59.8114 300.517 62.5866C300.517 65.3617 298.402 67.5254 295.565 67.5254C292.729 67.5254 290.614 65.3617 290.614 62.5866C290.614 59.8114 292.729 57.6477 295.565 57.6477ZM295.565 65.6863C297.322 65.6863 298.594 64.334 298.594 62.5842C298.594 60.8344 297.322 59.4821 295.565 59.4821C293.809 59.4821 292.537 60.8344 292.537 62.5842C292.537 64.334 293.809 65.6863 295.565 65.6863Z" fill="#724896"></path>
  <path d="M311.606 65.4087L313.655 57.8429H315.684L312.938 67.3231H310.316L308.414 60.5781L306.511 67.3231H303.89L301.144 57.8429H303.173L305.221 65.4087L307.397 57.9417H309.436L311.611 65.4087H311.606Z" fill="#724896"></path>
  <path d="M325.224 66.5941C324.147 67.2173 322.973 67.5231 321.671 67.5231C318.537 67.5231 316.371 65.5076 316.371 62.5842C316.371 59.6609 318.379 57.6454 321.165 57.6454C324.193 57.6454 326.145 60.2136 325.592 63.2945H318.34C318.68 64.8443 319.864 65.7051 321.669 65.7051C322.756 65.7051 323.687 65.4182 324.931 64.8161L325.222 66.5941H325.224ZM323.856 61.7352C323.729 60.3618 322.758 59.4351 321.225 59.4351C319.693 59.4351 318.546 60.3641 318.4 61.7352H323.856Z" fill="#724896"></path>
  <path d="M327.675 57.8452H329.596V67.9769C329.596 70.1406 328.547 71.4741 326.344 71.4741C325.81 71.4741 325.148 71.3448 324.799 71.1778L325.003 69.5574C325.255 69.6562 325.74 69.7549 326.207 69.7549C327.227 69.7549 327.673 69.1717 327.673 67.8688V57.8452H327.675ZM327.451 54.6656C327.451 53.9553 327.936 53.4614 328.634 53.4614C329.333 53.4614 329.83 53.9553 329.83 54.6656C329.83 55.3758 329.335 55.8697 328.634 55.8697C327.934 55.8697 327.451 55.3758 327.451 54.6656Z" fill="#724896"></path>
  <path d="M52.8011 0.66748V7.33258H39.6914V0.66748H26.5886V7.33258H13.4835V0.66748H0.378418V67.3326H65.9062V0.66748H52.8011ZM11.8445 2.35845V2.34669V9.00003H28.2253V2.35845H38.0547V9.00003H54.4355V2.35845H64.2672V26.0297H55.8317C55.5335 24.341 54.3638 22.9205 52.7733 22.3396V17.3255H13.4974V17.3537H13.4673V22.3514C12.0965 22.8641 11.0423 24 10.5962 25.39C10.5245 25.5969 10.4667 25.8109 10.4228 26.0297H2.0128V2.34669L11.8422 2.35845H11.8445ZM51.1367 49.3575V54.0141H16.3593L30.0793 32.3561L36.6469 43.5297L51.1367 20.8368V23.7366L51.7932 23.873C53.2126 24.167 54.2459 25.437 54.2736 26.9092C54.2575 28.3909 53.2218 29.6727 51.7955 29.969L51.139 30.1054V30.1995V33.318L51.7955 33.4544C53.2149 33.7484 54.2459 35.0184 54.276 36.4859C54.2598 37.9652 53.2218 39.247 51.7978 39.541L51.1413 39.6774V39.7785V42.897L51.7978 43.0334C53.2149 43.3251 54.2482 44.5951 54.2783 46.0626C54.2598 47.5395 53.2241 48.8213 51.8001 49.1153L51.1436 49.2517V49.3599L51.1367 49.3575ZM14.4521 23.873L15.1086 23.7366V23.6543L15.1387 23.6473V19.0188H50.3437L36.6908 40.3853L30.1232 29.2117L15.1387 52.8641V49.2493L14.4822 49.1129C13.0443 48.8166 12.0017 47.516 12.0017 46.0203C12.0017 45.7451 12.0387 45.477 12.1034 45.2183C12.4271 44.1294 13.3148 43.2663 14.4521 43.0311L15.1086 42.8947V42.7982L15.1387 42.7912V39.6727L14.4822 39.5362C13.0443 39.2399 12.0017 37.9394 12.0017 36.4436C12.0017 36.1026 12.0595 35.771 12.1612 35.4582C12.5241 34.4516 13.3795 33.6684 14.4544 33.4473L15.111 33.3109V33.2216L15.141 33.2145V30.096L14.4845 29.9596C13.0466 29.6632 12.004 28.3627 12.004 26.8669C12.004 26.5141 12.0641 26.1731 12.1728 25.8533C12.5403 24.8584 13.3887 24.0847 14.4567 23.8636L14.4521 23.873ZM2.01511 35.6651V27.7112H10.3881C10.6563 29.4469 11.8422 30.9144 13.4696 31.5094V31.9234C12.0595 32.4502 10.9845 33.6331 10.5615 35.0795C10.4991 35.2771 10.4505 35.4793 10.4136 35.6839H2.01742V35.6675L2.01511 35.6651ZM10.4043 37.382C10.6979 39.0776 11.8722 40.5052 13.4696 41.0908V41.4977C12.0387 42.0339 10.9522 43.2474 10.543 44.7244C10.4875 44.9078 10.4413 45.096 10.4066 45.2888H2.01511V37.3843H10.4043V37.382ZM55.8502 45.2865C55.5844 43.5485 54.3985 42.0786 52.7733 41.4836V41.0885C54.3707 40.5029 55.5428 39.0776 55.8364 37.382H64.2649V45.2865H55.8502ZM64.2649 35.6816L55.834 35.6228C55.5405 33.9248 54.3684 32.4972 52.771 31.9116V31.5094C54.3962 30.9144 55.5844 29.4469 55.8502 27.7112H64.2649V35.6816ZM64.2649 65.6651H2.01511V46.9892H10.4112C10.7141 48.6731 11.8815 50.0889 13.4696 50.6698V55.7427H52.7733V55.6816V50.6698C54.3615 50.0889 55.5289 48.6731 55.8317 46.9892H64.2672V65.6651H64.2649Z" fill="#724896"></path>
</svg>
